<?xml version="1.0" encoding="UTF-8"?>
<svg width="177px" height="82px" viewBox="0 0 177 82" version="1.1" xmlns="http://www.w3.org/2000/svg" xmlns:xlink="http://www.w3.org/1999/xlink">
    <!-- Generator: Sketch 53 (72520) - https://sketchapp.com -->
    <title>Artboard</title>
    <desc>Created with Sketch.</desc>
    <g id="Artboard" stroke="none" stroke-width="1" fill="none" fill-rule="evenodd">
        <g id="logo" transform="translate(25.000000, 4.000000)">
            <path d="M77.359127,2.83918367 C76.8249811,2.4312533 76.2296836,2.11015426 75.5952381,1.8877551 C74.722729,1.57212925 73.8187995,1.35104223 72.8990079,1.22829932 C70.8831349,0.941360544 68.7815873,0.724897959 66.675,0.599047619 C66.577635,0.593874731 66.4800635,0.593874731 66.3826984,0.599047619 C65.6021989,0.592692821 64.9400084,1.16983656 64.8405556,1.94312925 L64.3365873,10.0378231 L64.0946825,13.9794558 L64.0946825,14.2361905 C64.0699057,14.6153497 64.1983337,14.988605 64.45123,15.2724385 C64.7041264,15.5562721 65.0603801,15.7269905 65.4402778,15.7463946 C67.1739286,15.8470748 68.9680556,16.0232653 70.7117857,16.2497959 C71.3298973,16.3361353 71.9525055,16.3865603 72.5764683,16.4008163 C73.585245,16.4361869 74.5886946,16.2398561 75.5095635,15.8269388 C76.9373058,15.1822574 77.9355736,13.8527309 78.1553968,12.3031293 C78.3708726,11.2282907 78.1118998,10.1128418 77.4448016,9.24244898 C78.2101112,8.64690785 78.7243425,7.78662914 78.8861508,6.83115646 C79.2139412,5.32060604 78.6216694,3.7587674 77.374246,2.84421769 L77.359127,2.83918367 Z" id="Path" fill="#CF2630" fill-rule="nonzero"></path>
            <path d="M77.359127,2.83918367 C76.8249811,2.4312533 76.2296836,2.11015426 75.5952381,1.8877551 C74.722729,1.57212925 73.8187995,1.35104223 72.8990079,1.22829932 C70.8831349,0.941360544 68.7815873,0.724897959 66.675,0.599047619 C66.577635,0.593874731 66.4800635,0.593874731 66.3826984,0.599047619 C65.6021989,0.592692821 64.9400084,1.16983656 64.8405556,1.94312925 L64.3365873,10.0378231 L64.0946825,13.9794558 L64.0946825,14.2361905 C64.0699057,14.6153497 64.1983337,14.988605 64.45123,15.2724385 C64.7041264,15.5562721 65.0603801,15.7269905 65.4402778,15.7463946 C67.1739286,15.8470748 68.9680556,16.0232653 70.7117857,16.2497959 C71.3298973,16.3361353 71.9525055,16.3865603 72.5764683,16.4008163 C73.585245,16.4361869 74.5886946,16.2398561 75.5095635,15.8269388 C76.9373058,15.1822574 77.9355736,13.8527309 78.1553968,12.3031293 C78.3708726,11.2282907 78.1118998,10.1128418 77.4448016,9.24244898 C78.2101112,8.64690785 78.7243425,7.78662914 78.8861508,6.83115646 C79.2139412,5.32060604 78.6216694,3.7587674 77.374246,2.84421769 L77.359127,2.83918367 Z" id="Path" stroke="#CF2630" stroke-width="5.69" stroke-linejoin="round"></path>
            <path d="M8.91015873,27.8884354 L11.016746,29.6352381 C9.82738095,29.4439456 8.62289683,29.2727891 7.41337302,29.1318367 C6.68790739,29.0253072 5.9674984,29.3545482 5.57388889,29.972517 C5.18583333,30.5614966 4.78265873,31.1404082 4.38452381,31.7243537 L3.71928571,32.7210884 C3.60337302,32.8922449 3.48746032,33.0684354 3.37154762,33.2546939 L3.22035714,33.4963265 C3.02062574,33.810131 2.95019303,34.1889574 3.02380952,34.5534694 C3.1087615,34.9241147 3.33466427,35.2472436 3.65376984,35.4545578 L12.4883333,41.077551 L13.8641667,41.9484354 C14.5222269,42.3701727 15.3973312,42.1863834 15.8296429,41.5356463 L17.4977778,39.0186395 C17.9173287,38.376711 17.7575252,37.5187334 17.1349206,37.0704762 L15.2450397,35.7414966 C16.207619,35.9428571 17.1651587,36.1593197 18.112619,36.4009524 C18.8073969,36.5944683 19.55056,36.3523188 19.9974603,35.7868027 C20.5014286,35.2078912 20.9751587,34.6340136 21.4690476,34.0651701 L22.0082937,33.4409524 L22.1342857,33.289932 C22.6495012,32.693189 22.6187791,31.8010578 22.0637302,31.2410884 L13.1031746,23.0658503 C12.8177576,22.8053113 12.4392341,22.6707189 12.0532024,22.6925094 C11.6671706,22.7142999 11.3062376,22.8906328 11.0520238,23.1816327 L9.8425,24.5760544 L8.73376984,25.8496599 C8.22358964,26.4517553 8.29801179,27.3528271 8.90007937,27.8632653 L8.91015873,27.8884354 Z" id="Path" fill="#CF2630" fill-rule="nonzero"></path>
            <path d="M8.91015873,27.8884354 L11.016746,29.6352381 C9.82738095,29.4439456 8.62289683,29.2727891 7.41337302,29.1318367 C6.68790739,29.0253072 5.9674984,29.3545482 5.57388889,29.972517 C5.18583333,30.5614966 4.78265873,31.1404082 4.38452381,31.7243537 L3.71928571,32.7210884 C3.60337302,32.8922449 3.48746032,33.0684354 3.37154762,33.2546939 L3.22035714,33.4963265 C3.02062574,33.810131 2.95019303,34.1889574 3.02380952,34.5534694 C3.1087615,34.9241147 3.33466427,35.2472436 3.65376984,35.4545578 L12.4883333,41.077551 L13.8641667,41.9484354 C14.5222269,42.3701727 15.3973312,42.1863834 15.8296429,41.5356463 L17.4977778,39.0186395 C17.9173287,38.376711 17.7575252,37.5187334 17.1349206,37.0704762 L15.2450397,35.7414966 C16.207619,35.9428571 17.1651587,36.1593197 18.112619,36.4009524 C18.8073969,36.5944683 19.55056,36.3523188 19.9974603,35.7868027 C20.5014286,35.2078912 20.9751587,34.6340136 21.4690476,34.0651701 L22.0082937,33.4409524 L22.1342857,33.289932 C22.6495012,32.693189 22.6187791,31.8010578 22.0637302,31.2410884 L13.1031746,23.0658503 C12.8177576,22.8053113 12.4392341,22.6707189 12.0532024,22.6925094 C11.6671706,22.7142999 11.3062376,22.8906328 11.0520238,23.1816327 L9.8425,24.5760544 L8.73376984,25.8496599 C8.22358964,26.4517553 8.29801179,27.3528271 8.90007937,27.8632653 L8.91015873,27.8884354 Z" id="Path" stroke="#CF2630" stroke-width="5.69" stroke-linejoin="round"></path>
            <path d="M37.7321032,18.2885714 L37.4398016,17.7851701 C37.3087698,17.5636735 37.1777381,17.3371429 37.0416667,17.1206803 L36.8753571,16.8589116 C36.6158404,16.4238953 36.3297154,16.0052777 36.0186111,15.6054422 C35.6748702,15.1596004 35.2193931,14.812299 34.6982143,14.5986395 C34.7784717,14.2487281 34.8157043,13.8903451 34.8090873,13.5314286 C34.7732246,12.5609014 34.4408375,11.6245889 33.8565873,10.8482993 C33.2216667,9.93167812 32.2073509,9.34928746 31.0948413,9.26258503 C30.6392805,9.22872766 30.1813954,9.24391708 29.7290873,9.30789116 C28.7060273,9.45703789 27.724717,9.81519025 26.8463889,10.36 C24.7399446,11.6054238 22.7010539,12.9614749 20.7382937,14.422449 C20.6263578,14.507451 20.5233555,14.6035907 20.430873,14.7093878 C19.9920575,15.2255551 19.9508601,15.9703888 20.3300794,16.5317007 L23.4849206,20.7955102 L27.5519444,26.2926531 C28.011757,26.9211236 28.8914523,27.0645857 29.5275,26.6148299 L29.7744444,26.4436735 L32.1128571,24.797551 C32.7480038,24.3514021 32.9131876,23.4818182 32.4857937,22.8342857 L30.4699206,19.7736054 L30.8327778,19.5571429 C30.9536438,19.4846526 31.082078,19.4255718 31.2157937,19.3809524 C31.2641221,19.433073 31.3063885,19.4904907 31.3417857,19.5521088 L31.845754,20.357551 C32.0372619,20.6595918 32.2287698,20.9616327 32.4253175,21.2636735 C32.6059024,21.5402422 32.8027978,21.805836 33.0149603,22.0590476 C33.1761241,22.249277 33.3606926,22.4184155 33.5642857,22.562449 C34.1306702,23.0134988 34.9147035,23.0752741 35.544881,22.7185034 L37.0567857,21.9080272 L38.195754,21.2888435 C38.3366305,21.2118191 38.4670445,21.1170792 38.5838095,21.0069388 C38.9815321,20.6443968 39.1562147,20.0979295 39.0424206,19.5722449 C38.9324547,19.0552829 38.5440878,18.6421374 38.0344841,18.5 L37.8379365,18.4496599 L37.7371429,18.2885714 L37.7321032,18.2885714 Z" id="Path" fill="#CF2630" fill-rule="nonzero"></path>
            <path d="M37.7321032,18.2885714 L37.4398016,17.7851701 C37.3087698,17.5636735 37.1777381,17.3371429 37.0416667,17.1206803 L36.8753571,16.8589116 C36.6158404,16.4238953 36.3297154,16.0052777 36.0186111,15.6054422 C35.6748702,15.1596004 35.2193931,14.812299 34.6982143,14.5986395 C34.7784717,14.2487281 34.8157043,13.8903451 34.8090873,13.5314286 C34.7732246,12.5609014 34.4408375,11.6245889 33.8565873,10.8482993 C33.2216667,9.93167812 32.2073509,9.34928746 31.0948413,9.26258503 C30.6392805,9.22872766 30.1813954,9.24391708 29.7290873,9.30789116 C28.7060273,9.45703789 27.724717,9.81519025 26.8463889,10.36 C24.7399446,11.6054238 22.7010539,12.9614749 20.7382937,14.422449 C20.6263578,14.507451 20.5233555,14.6035907 20.430873,14.7093878 C19.9920575,15.2255551 19.9508601,15.9703888 20.3300794,16.5317007 L23.4849206,20.7955102 L27.5519444,26.2926531 C28.011757,26.9211236 28.8914523,27.0645857 29.5275,26.6148299 L29.7744444,26.4436735 L32.1128571,24.797551 C32.7480038,24.3514021 32.9131876,23.4818182 32.4857937,22.8342857 L30.4699206,19.7736054 L30.8327778,19.5571429 C30.9536438,19.4846526 31.082078,19.4255718 31.2157937,19.3809524 C31.2641221,19.433073 31.3063885,19.4904907 31.3417857,19.5521088 L31.845754,20.357551 C32.0372619,20.6595918 32.2287698,20.9616327 32.4253175,21.2636735 C32.6059024,21.5402422 32.8027978,21.805836 33.0149603,22.0590476 C33.1761241,22.249277 33.3606926,22.4184155 33.5642857,22.562449 C34.1306702,23.0134988 34.9147035,23.0752741 35.544881,22.7185034 L37.0567857,21.9080272 L38.195754,21.2888435 C38.3366305,21.2118191 38.4670445,21.1170792 38.5838095,21.0069388 C38.9815321,20.6443968 39.1562147,20.0979295 39.0424206,19.5722449 C38.9324547,19.0552829 38.5440878,18.6421374 38.0344841,18.5 L37.8379365,18.4496599 L37.7371429,18.2885714 L37.7321032,18.2885714 Z" id="Path" stroke="#CF2630" stroke-width="5.69" stroke-linejoin="round"></path>
            <path d="M40.972619,4.32421769 C40.1236684,4.28464356 39.2736934,4.3763376 38.4527778,4.59605442 C37.3673519,4.88162621 36.3187954,5.29213045 35.3281746,5.81931973 C34.3709982,6.30084428 33.523489,6.97431886 32.8385714,7.79768707 C32.0459571,8.75531255 31.6302423,9.96883674 31.6693651,11.2107483 C31.696837,11.8989606 31.8329032,12.5785266 32.0725397,13.2243537 C32.467285,14.3386181 32.9614816,15.415193 33.5491667,16.4410884 C33.9947625,17.2825261 34.5432453,18.0654331 35.1820238,18.7718367 C36.485376,20.1820478 38.4439929,20.7887473 40.3174603,20.362585 C41.7546946,20.0749596 43.1341592,19.5510125 44.3996032,18.8121088 C46.4334587,17.756445 47.5923449,15.5457838 47.3024603,13.2746939 C47.1943672,12.3116981 47.0021261,11.3599964 46.7279365,10.4304762 C46.4197302,9.33116833 46.0062473,8.2640653 45.4932143,7.24394558 C44.6402952,5.50444376 42.8955761,4.37746117 40.9575,4.31414966 L40.972619,4.32421769 Z" id="Path" fill="#CF2630" fill-rule="nonzero"></path>
            <path d="M40.972619,4.32421769 C40.1236684,4.28464356 39.2736934,4.3763376 38.4527778,4.59605442 C37.3673519,4.88162621 36.3187954,5.29213045 35.3281746,5.81931973 C34.3709982,6.30084428 33.523489,6.97431886 32.8385714,7.79768707 C32.0459571,8.75531255 31.6302423,9.96883674 31.6693651,11.2107483 C31.696837,11.8989606 31.8329032,12.5785266 32.0725397,13.2243537 C32.467285,14.3386181 32.9614816,15.415193 33.5491667,16.4410884 C33.9947625,17.2825261 34.5432453,18.0654331 35.1820238,18.7718367 C36.485376,20.1820478 38.4439929,20.7887473 40.3174603,20.362585 C41.7546946,20.0749596 43.1341592,19.5510125 44.3996032,18.8121088 C46.4334587,17.756445 47.5923449,15.5457838 47.3024603,13.2746939 C47.1943672,12.3116981 47.0021261,11.3599964 46.7279365,10.4304762 C46.4197302,9.33116833 46.0062473,8.2640653 45.4932143,7.24394558 C44.6402952,5.50444376 42.8955761,4.37746117 40.9575,4.31414966 L40.972619,4.32421769 Z" id="Path" stroke="#CF2630" stroke-width="5.69" stroke-linejoin="round"></path>
            <path d="M87.2822619,6.50394558 L82.6507937,17.7348299 C82.5043159,18.0851551 82.5038863,18.4793899 82.6496001,18.8300328 C82.7953139,19.1806757 83.0751164,19.4587186 83.4269048,19.602449 C86.2710822,20.7720621 89.0208082,22.1588425 91.6516667,23.7504762 C91.9796789,23.9452476 92.3718018,24.0016331 92.7414957,23.9071886 C93.1111896,23.8127441 93.4280627,23.5752337 93.6221825,23.2470748 L93.9447222,22.7185034 L94.6553175,21.5355102 C94.8514486,21.2089747 94.9085421,20.8175983 94.813855,20.448734 C94.7191679,20.0798697 94.4805823,19.7642231 94.1513492,19.5722449 C92.7603968,18.7265306 91.3089683,17.9210884 89.7365873,17.1307483 C89.7970635,17.009932 89.8525,16.8840816 89.9129762,16.7632653 C91.2283333,17.4227211 92.5184921,18.127483 93.8288095,18.9027211 C94.510858,19.304938 95.3901473,19.0797328 95.7942857,18.3993197 L96.7518254,16.7783673 C97.1701084,16.0825319 96.9761068,15.1818794 96.3083333,14.7194558 C94.9576984,13.9140136 93.5415476,13.1438095 92.0094841,12.3736054 L92.0094841,12.3484354 C92.5940873,12.6454422 93.1635714,12.937415 93.7330556,13.2394558 C94.4184524,13.6069388 95.0988095,13.9895238 95.7842063,14.3771429 L96.7115079,14.8805442 C97.3856551,15.2592177 98.2389375,15.0366791 98.6417063,14.3771429 L98.7979365,14.1153741 L99.6496429,12.6907483 C100.03739,12.0400206 99.8520514,11.2003217 99.2263095,10.7727891 C97.3213095,9.46897959 90.6084524,6.12136054 88.9705556,5.65823129 C88.2708805,5.45778508 87.5323541,5.81578445 87.2570635,6.48884354 L87.2822619,6.50394558 Z" id="Path" fill="#CF2630" fill-rule="nonzero"></path>
            <path d="M87.2822619,6.50394558 L82.6507937,17.7348299 C82.5043159,18.0851551 82.5038863,18.4793899 82.6496001,18.8300328 C82.7953139,19.1806757 83.0751164,19.4587186 83.4269048,19.602449 C86.2710822,20.7720621 89.0208082,22.1588425 91.6516667,23.7504762 C91.9796789,23.9452476 92.3718018,24.0016331 92.7414957,23.9071886 C93.1111896,23.8127441 93.4280627,23.5752337 93.6221825,23.2470748 L93.9447222,22.7185034 L94.6553175,21.5355102 C94.8514486,21.2089747 94.9085421,20.8175983 94.813855,20.448734 C94.7191679,20.0798697 94.4805823,19.7642231 94.1513492,19.5722449 C92.7603968,18.7265306 91.3089683,17.9210884 89.7365873,17.1307483 C89.7970635,17.009932 89.8525,16.8840816 89.9129762,16.7632653 C91.2283333,17.4227211 92.5184921,18.127483 93.8288095,18.9027211 C94.510858,19.304938 95.3901473,19.0797328 95.7942857,18.3993197 L96.7518254,16.7783673 C97.1701084,16.0825319 96.9761068,15.1818794 96.3083333,14.7194558 C94.9576984,13.9140136 93.5415476,13.1438095 92.0094841,12.3736054 L92.0094841,12.3484354 C92.5940873,12.6454422 93.1635714,12.937415 93.7330556,13.2394558 C94.4184524,13.6069388 95.0988095,13.9895238 95.7842063,14.3771429 L96.7115079,14.8805442 C97.3856551,15.2592177 98.2389375,15.0366791 98.6417063,14.3771429 L98.7979365,14.1153741 L99.6496429,12.6907483 C100.03739,12.0400206 99.8520514,11.2003217 99.2263095,10.7727891 C97.3213095,9.46897959 90.6084524,6.12136054 88.9705556,5.65823129 C88.2708805,5.45778508 87.5323541,5.81578445 87.2570635,6.48884354 L87.2822619,6.50394558 Z" id="Path" stroke="#CF2630" stroke-width="5.69" stroke-linejoin="round"></path>
            <path d="M25.1984127,20.5236735 C24.0745635,21.3744218 23.2278968,22.0338776 22.4517857,22.7134694 C21.8744243,23.2051703 21.7795124,24.0606205 22.2350794,24.6666667 L22.3963492,24.8730612 L22.6735317,25.2405442 C22.8745202,25.4980239 23.0234376,25.7921041 23.1119841,26.1063946 C23.0004169,26.336605 22.8256352,26.5303946 22.6080159,26.6651701 C22.5063807,26.6569073 22.4072156,26.6295822 22.3157143,26.5846259 C21.9963508,26.3825244 21.6900073,26.1605911 21.3984921,25.9201361 C20.5165179,25.155459 19.7052175,24.31306 18.9744048,23.4031293 C18.7363835,23.1200644 18.5395727,22.8048434 18.3898016,22.4668027 C18.3142063,22.2755102 18.3394048,22.2402721 18.3898016,22.1446259 C18.5650009,21.9182509 18.784479,21.7298491 19.034881,21.5908844 C19.0734942,21.5666498 19.1161793,21.5495949 19.160873,21.5405442 C19.3473413,21.6814966 19.4884524,21.822449 19.6396429,21.9533333 L19.906746,22.2 L20.0276984,22.3157823 C20.5459401,22.8147245 21.3538781,22.8534619 21.9175794,22.4063946 L24.7700397,20.1360544 C25.0857441,19.8831018 25.2799579,19.5088442 25.304905,19.1053479 C25.3298521,18.7018516 25.1832169,18.3065676 24.9010714,18.0167347 L24.6037302,17.7046259 C24.3567857,17.4478912 24.0997619,17.2012245 23.8729762,16.9646259 C23.0827769,16.2340237 22.0468635,15.8262324 20.970119,15.8219048 C19.8945313,15.804916 18.8342585,16.0779465 17.9009524,16.6122449 C16.3035557,17.524702 14.9120856,18.7569357 13.8137698,20.2317007 C13.6773066,20.4130833 13.5527342,20.6030946 13.4408333,20.8005442 C13.2946825,21.0522449 13.1586111,21.3039456 13.0376587,21.5657143 C12.1372399,23.4037454 12.3890804,25.5970096 13.6827381,27.1836735 C14.6607763,28.4519367 15.8068782,29.5815078 17.0895635,30.5413605 C17.5203671,30.88014 17.9770076,31.1847856 18.4553175,31.452517 C20.1257007,32.4341517 22.1975533,32.4341517 23.8679365,31.452517 C25.323352,30.6282413 26.5970034,29.5186886 27.6124206,28.1904762 C27.9334949,27.7677857 28.2025286,27.3080697 28.4137302,26.8212245 C28.883237,25.8054848 28.9726397,24.6552737 28.6657143,23.5793197 C28.3938553,22.6458139 27.9550461,21.7691828 27.3705159,20.9918367 C27.3006738,20.8951534 27.223148,20.8042472 27.1386905,20.72 C26.6262673,20.1909619 25.8066388,20.108028 25.1984127,20.5236735 L25.1984127,20.5236735 Z" id="Path" fill="#CF2630" fill-rule="nonzero"></path>
            <path d="M25.1984127,20.5236735 C24.0745635,21.3744218 23.2278968,22.0338776 22.4517857,22.7134694 C21.8744243,23.2051703 21.7795124,24.0606205 22.2350794,24.6666667 L22.3963492,24.8730612 L22.6735317,25.2405442 C22.8745202,25.4980239 23.0234376,25.7921041 23.1119841,26.1063946 C23.0004169,26.336605 22.8256352,26.5303946 22.6080159,26.6651701 C22.5063807,26.6569073 22.4072156,26.6295822 22.3157143,26.5846259 C21.9963508,26.3825244 21.6900073,26.1605911 21.3984921,25.9201361 C20.5165179,25.155459 19.7052175,24.31306 18.9744048,23.4031293 C18.7363835,23.1200644 18.5395727,22.8048434 18.3898016,22.4668027 C18.3142063,22.2755102 18.3394048,22.2402721 18.3898016,22.1446259 C18.5650009,21.9182509 18.784479,21.7298491 19.034881,21.5908844 C19.0734942,21.5666498 19.1161793,21.5495949 19.160873,21.5405442 C19.3473413,21.6814966 19.4884524,21.822449 19.6396429,21.9533333 L19.906746,22.2 L20.0276984,22.3157823 C20.5459401,22.8147245 21.3538781,22.8534619 21.9175794,22.4063946 L24.7700397,20.1360544 C25.0857441,19.8831018 25.2799579,19.5088442 25.304905,19.1053479 C25.3298521,18.7018516 25.1832169,18.3065676 24.9010714,18.0167347 L24.6037302,17.7046259 C24.3567857,17.4478912 24.0997619,17.2012245 23.8729762,16.9646259 C23.0827769,16.2340237 22.0468635,15.8262324 20.970119,15.8219048 C19.8945313,15.804916 18.8342585,16.0779465 17.9009524,16.6122449 C16.3035557,17.524702 14.9120856,18.7569357 13.8137698,20.2317007 C13.6773066,20.4130833 13.5527342,20.6030946 13.4408333,20.8005442 C13.2946825,21.0522449 13.1586111,21.3039456 13.0376587,21.5657143 C12.1372399,23.4037454 12.3890804,25.5970096 13.6827381,27.1836735 C14.6607763,28.4519367 15.8068782,29.5815078 17.0895635,30.5413605 C17.5203671,30.88014 17.9770076,31.1847856 18.4553175,31.452517 C20.1257007,32.4341517 22.1975533,32.4341517 23.8679365,31.452517 C25.323352,30.6282413 26.5970034,29.5186886 27.6124206,28.1904762 C27.9334949,27.7677857 28.2025286,27.3080697 28.4137302,26.8212245 C28.883237,25.8054848 28.9726397,24.6552737 28.6657143,23.5793197 C28.3938553,22.6458139 27.9550461,21.7691828 27.3705159,20.9918367 C27.3006738,20.8951534 27.223148,20.8042472 27.1386905,20.72 C26.6262673,20.1909619 25.8066388,20.108028 25.1984127,20.5236735 L25.1984127,20.5236735 Z" id="Path" stroke="#CF2630" stroke-width="5.69" stroke-linejoin="round"></path>
            <path d="M55.5977778,0.855782313 C54.0140705,0.949000815 52.4420256,1.18487927 50.9007937,1.56054422 C50.5059716,1.7183486 50.2014538,2.04280223 50.069246,2.44653061 L49.8223016,3.21170068 L49.2427381,4.99877551 C48.6278968,4.28897959 48.0483333,3.61442177 47.4687698,2.98517007 C47.1234883,2.57717068 46.5787017,2.39642726 46.0576587,2.5170068 C44.6465476,2.86938776 43.2606349,3.22176871 41.8646429,3.68993197 C41.3804372,3.85063535 41.0184942,4.25666621 40.9146372,4.75565665 C40.8107801,5.25464709 40.9807161,5.77113133 41.3606746,6.11129252 L41.6580159,6.37809524 C43.6738889,8.05442177 45.5990476,9.85156463 47.4284524,11.7242177 C47.7157143,12.932381 48.0080159,14.1455782 48.2952778,15.3537415 L48.4061508,15.8068027 C48.4330196,15.9167715 48.4684039,16.0244881 48.5119841,16.1289796 C48.7649405,16.8054077 49.4618816,17.208335 50.1750794,17.0904762 L52.291746,16.642449 L53.2392063,16.4360544 C53.9422035,16.2869163 54.4266404,15.6417272 54.3731349,14.9258503 C54.3707496,14.812642 54.3589498,14.6998275 54.3378571,14.5885714 L54.2068254,13.8888435 C53.9951587,12.7310204 53.7784524,11.5681633 53.5567063,10.4103401 C54.4613425,7.95897955 55.4890608,5.55470683 56.6359524,3.20666667 L56.7518651,2.96503401 C56.9554531,2.52164161 56.9367589,2.0081314 56.7014683,1.58068027 C56.477088,1.16527662 56.0625083,0.886691282 55.5927381,0.835646259 L55.5977778,0.855782313 Z" id="Path" fill="#CF2630" fill-rule="nonzero"></path>
            <path d="M55.5977778,0.855782313 C54.0140705,0.949000815 52.4420256,1.18487927 50.9007937,1.56054422 C50.5059716,1.7183486 50.2014538,2.04280223 50.069246,2.44653061 L49.8223016,3.21170068 L49.2427381,4.99877551 C48.6278968,4.28897959 48.0483333,3.61442177 47.4687698,2.98517007 C47.1234883,2.57717068 46.5787017,2.39642726 46.0576587,2.5170068 C44.6465476,2.86938776 43.2606349,3.22176871 41.8646429,3.68993197 C41.3804372,3.85063535 41.0184942,4.25666621 40.9146372,4.75565665 C40.8107801,5.25464709 40.9807161,5.77113133 41.3606746,6.11129252 L41.6580159,6.37809524 C43.6738889,8.05442177 45.5990476,9.85156463 47.4284524,11.7242177 C47.7157143,12.932381 48.0080159,14.1455782 48.2952778,15.3537415 L48.4061508,15.8068027 C48.4330196,15.9167715 48.4684039,16.0244881 48.5119841,16.1289796 C48.7649405,16.8054077 49.4618816,17.208335 50.1750794,17.0904762 L52.291746,16.642449 L53.2392063,16.4360544 C53.9422035,16.2869163 54.4266404,15.6417272 54.3731349,14.9258503 C54.3707496,14.812642 54.3589498,14.6998275 54.3378571,14.5885714 L54.2068254,13.8888435 C53.9951587,12.7310204 53.7784524,11.5681633 53.5567063,10.4103401 C54.4613425,7.95897955 55.4890608,5.55470683 56.6359524,3.20666667 L56.7518651,2.96503401 C56.9554531,2.52164161 56.9367589,2.0081314 56.7014683,1.58068027 C56.477088,1.16527662 56.0625083,0.886691282 55.5927381,0.835646259 L55.5977778,0.855782313 Z" id="Path" stroke="#CF2630" stroke-width="5.69" stroke-linejoin="round"></path>
            <path d="M81.4311905,13.672381 C82.3080952,10.8701134 83.1866799,8.0661678 84.0669444,5.26054422 C84.1859288,4.88659332 84.1452347,4.48017914 83.9544619,4.13717435 C83.7636891,3.79416956 83.4397306,3.54494748 83.0590079,3.44829932 L79.168373,2.4414966 C78.7994077,2.34532059 78.4072744,2.40018832 78.0789657,2.5939277 C77.7506571,2.78766709 77.5133188,3.10425904 77.4196032,3.47346939 L75.4037302,11.4423129 L74.3957937,15.3185034 C74.2028467,16.0749076 74.6507105,16.8466035 75.4037302,17.0552381 L76.8047619,17.4428571 C77.8378968,17.7247619 78.8559127,18.0066667 79.8638492,18.3187755 C80.8717857,18.6308844 81.8797222,18.9782313 82.8876587,19.3255782 L84.248373,19.7937415 C84.9598974,20.0372254 85.7384259,19.6869512 86.027381,18.9933333 L86.3801587,18.1677551 L86.7984524,17.1609524 C86.9494043,16.8054403 86.9494043,16.4039475 86.7984524,16.0484354 C86.6470456,15.6943653 86.3604164,15.4153068 86.0021825,15.2731973 C84.565873,14.7043537 83.0640476,14.1808163 81.4664683,13.672381 L81.4311905,13.672381 Z" id="Path" fill="#CF2630" fill-rule="nonzero"></path>
            <path d="M81.4311905,13.672381 C82.3080952,10.8701134 83.1866799,8.0661678 84.0669444,5.26054422 C84.1859288,4.88659332 84.1452347,4.48017914 83.9544619,4.13717435 C83.7636891,3.79416956 83.4397306,3.54494748 83.0590079,3.44829932 L79.168373,2.4414966 C78.7994077,2.34532059 78.4072744,2.40018832 78.0789657,2.5939277 C77.7506571,2.78766709 77.5133188,3.10425904 77.4196032,3.47346939 L75.4037302,11.4423129 L74.3957937,15.3185034 C74.2028467,16.0749076 74.6507105,16.8466035 75.4037302,17.0552381 L76.8047619,17.4428571 C77.8378968,17.7247619 78.8559127,18.0066667 79.8638492,18.3187755 C80.8717857,18.6308844 81.8797222,18.9782313 82.8876587,19.3255782 L84.248373,19.7937415 C84.9598974,20.0372254 85.7384259,19.6869512 86.027381,18.9933333 L86.3801587,18.1677551 L86.7984524,17.1609524 C86.9494043,16.8054403 86.9494043,16.4039475 86.7984524,16.0484354 C86.6470456,15.6943653 86.3604164,15.4153068 86.0021825,15.2731973 C84.565873,14.7043537 83.0640476,14.1808163 81.4664683,13.672381 L81.4311905,13.672381 Z" id="Path" stroke="#CF2630" stroke-width="5.69" stroke-linejoin="round"></path>
            <path d="M1.16920635,39.7687075 L11.6215079,45.502449 L12.0398016,45.7289796 C12.376436,45.915954 12.7743075,45.9595073 13.1434921,45.8497959 C13.511268,45.7375253 13.8194047,45.484051 14.0002381,45.145034 L15.6230159,42.0692517 C15.9729931,41.4065108 15.7534553,40.5863631 15.1190476,40.1865306 L10.4019048,37.2517007 L4.60626984,33.6272109 C3.95786214,33.2251565 3.10789116,33.3998236 2.67103175,34.024898 C1.85709145,35.3282819 1.13305818,36.6855786 0.503968254,38.0873469 C0.299834905,38.7344165 0.577364715,39.4358611 1.16920635,39.7687075 Z" id="Path" fill="#CF2630" fill-rule="nonzero"></path>
            <path d="M1.16920635,39.7687075 L11.6215079,45.502449 L12.0398016,45.7289796 C12.376436,45.915954 12.7743075,45.9595073 13.1434921,45.8497959 C13.511268,45.7375253 13.8194047,45.484051 14.0002381,45.145034 L15.6230159,42.0692517 C15.9729931,41.4065108 15.7534553,40.5863631 15.1190476,40.1865306 L10.4019048,37.2517007 L4.60626984,33.6272109 C3.95786214,33.2251565 3.10789116,33.3998236 2.67103175,34.024898 C1.85709145,35.3282819 1.13305818,36.6855786 0.503968254,38.0873469 C0.299834905,38.7344165 0.577364715,39.4358611 1.16920635,39.7687075 Z" id="Path" stroke="#CF2630" stroke-width="5.69" stroke-linejoin="round"></path>
            <path d="M67.3906349,13.6673469 C66.2275129,9.46222752 64.8001315,5.33453916 63.1169841,1.30884354 C62.8883287,0.754042008 62.3361938,0.401797782 61.7361111,0.427891156 L59.911746,0.503401361 L57.0290476,0.619183673 C56.4260053,0.646117887 55.9052477,1.04935191 55.7288095,1.62598639 C54.3372862,5.85717998 53.2129081,10.1714147 52.3623016,14.5432653 C52.2862043,14.9860784 52.4214234,15.4389907 52.7279042,15.76784 C53.034385,16.0966894 53.4769874,16.263771 53.9246032,16.2195918 L55.3508333,16.0635374 L57.2205556,15.8521088 C57.836212,15.7835588 58.3371722,15.3258789 58.4603175,14.7194558 C58.5711905,14.2160544 58.6770238,13.6673469 58.7878968,13.1387755 C59.5035317,13.0934694 60.2090873,13.0682993 60.9096032,13.0531973 L61.3480556,14.5885714 C61.5151175,15.1832722 62.0456408,15.6035587 62.6634127,15.6306122 L63.0212302,15.6306122 C63.9989286,15.6306122 65.0371032,15.6759184 65.9996825,15.7312925 C66.4650756,15.7585838 66.9146136,15.5577589 67.2044954,15.193059 C67.4943771,14.8283591 67.5882745,14.3454886 67.4561508,13.8989116 L67.3805556,13.6522449 L67.3906349,13.6673469 Z" id="Path" fill="#CF2630" fill-rule="nonzero"></path>
            <path d="M67.3906349,13.6673469 C66.2275129,9.46222752 64.8001315,5.33453916 63.1169841,1.30884354 C62.8883287,0.754042008 62.3361938,0.401797782 61.7361111,0.427891156 L59.911746,0.503401361 L57.0290476,0.619183673 C56.4260053,0.646117887 55.9052477,1.04935191 55.7288095,1.62598639 C54.3372862,5.85717998 53.2129081,10.1714147 52.3623016,14.5432653 C52.2862043,14.9860784 52.4214234,15.4389907 52.7279042,15.76784 C53.034385,16.0966894 53.4769874,16.263771 53.9246032,16.2195918 L55.3508333,16.0635374 L57.2205556,15.8521088 C57.836212,15.7835588 58.3371722,15.3258789 58.4603175,14.7194558 C58.5711905,14.2160544 58.6770238,13.6673469 58.7878968,13.1387755 C59.5035317,13.0934694 60.2090873,13.0682993 60.9096032,13.0531973 L61.3480556,14.5885714 C61.5151175,15.1832722 62.0456408,15.6035587 62.6634127,15.6306122 L63.0212302,15.6306122 C63.9989286,15.6306122 65.0371032,15.6759184 65.9996825,15.7312925 C66.4650756,15.7585838 66.9146136,15.5577589 67.2044954,15.193059 C67.4943771,14.8283591 67.5882745,14.3454886 67.4561508,13.8989116 L67.3805556,13.6522449 L67.3906349,13.6673469 Z" id="Path" stroke="#CF2630" stroke-width="5.69" stroke-linejoin="round"></path>
            <path d="M76.0992063,4.44503401 C75.7191309,4.15962652 75.2976619,3.93385098 74.8493651,3.7755102 C74.1396437,3.52149607 73.4046821,3.34429109 72.6571032,3.24693878 C70.8125794,2.98517007 68.9646958,2.79891156 67.1134524,2.68816327 L66.8261905,2.68816327 C66.5977249,6.37977324 66.3692593,10.0428571 66.1407937,13.677415 L66.1407937,13.9190476 C67.7786905,14.0096599 69.4115476,14.1707483 71.0444048,14.3922449 C71.5590125,14.4627022 72.0773044,14.5030431 72.596627,14.5130612 C73.3175105,14.5394045 74.034811,14.3998949 74.6931349,14.1053061 C75.6080289,13.6836239 76.2391802,12.8189098 76.3612698,11.8198639 C76.5354231,11.0117351 76.2391433,10.1745181 75.5952381,9.6552381 C75.2345037,9.34443546 74.8144862,9.10983271 74.3605159,8.96557823 L74.1337302,8.88503401 C74.5318651,8.80952381 74.945119,8.7692517 75.3382143,8.65346939 C76.2256778,8.43479769 76.8963365,7.70741643 77.041627,6.80598639 C77.2495212,5.90785832 76.890558,4.97361184 76.1344841,4.44503401 L76.0992063,4.44503401 Z M73.1257937,11.2359184 C73.1057247,11.3672906 73.075394,11.4968926 73.0350794,11.6235374 C72.919348,12.1003657 72.5454234,12.4719243 72.0674603,12.585034 C71.8396694,12.6320388 71.6090237,12.6639902 71.3770238,12.6806803 C70.673232,12.6713795 69.9709734,12.6125033 69.2754762,12.5044898 C69.4065079,11.3718367 69.5325,10.2643537 69.6635317,9.11156463 C70.2934921,9.19714286 70.8780952,9.25755102 71.4576587,9.36326531 C71.7741,9.42441317 72.0808976,9.52769275 72.3698413,9.67034014 C72.9732073,9.94279881 73.3032272,10.5999965 73.1610714,11.2459864 L73.1257937,11.2359184 Z M73.6297619,6.16163265 C73.7161123,6.73045104 73.4276534,7.29048711 72.914127,7.55102041 C72.6904605,7.64172695 72.4542268,7.69774813 72.2136111,7.71714286 C71.4107046,7.75017774 70.6065571,7.69786569 69.8147222,7.56108844 C69.9306349,6.55428571 70.0364683,5.61292517 70.152381,4.63129252 C71.0069063,4.67893902 71.8527599,4.82764179 72.6722222,5.07428571 C72.8296763,5.13657474 72.9814338,5.21236814 73.1257937,5.30081633 C73.4325176,5.49244675 73.6219733,5.82551374 73.6297619,6.18680272 L73.6297619,6.16163265 Z" id="Shape" fill="#FFFFFF" fill-rule="nonzero"></path>
            <path d="M10.1952778,27.1836735 L16.1269841,32.0868027 C16.0866667,32.0868027 16.0715476,32.1220408 16.0564286,32.1170068 L15.7943651,32.0616327 C13.1468085,31.4724951 10.4705233,31.0205083 7.77623016,30.707483 C7.6001108,30.6694812 7.41987887,30.7513127 7.3327381,30.9088435 C6.75821429,31.7646259 6.16857143,32.6053061 5.58900794,33.4560544 C5.43781746,33.677551 5.29670635,33.9040816 5.13543651,34.1507483 L14.6705159,40.1915646 L16.2378571,37.8658503 L9.80722222,33.3352381 L9.85761905,33.294966 L10.0944841,33.3201361 C12.8414096,33.6640416 15.5658202,34.1683058 18.2537302,34.8303401 C18.4063819,34.8853768 18.5769304,34.8292838 18.6669841,34.6944218 C19.2868651,33.9544218 19.9269048,33.2295238 20.5568651,32.4945578 L20.7231746,32.3032653 L12.367381,24.7069388 L10.1952778,27.1836735 Z" id="Path" fill="#FFFFFF" fill-rule="nonzero"></path>
            <path d="M36.195,19.0386395 C35.9782937,18.6912925 35.781746,18.3288435 35.5650397,17.9814966 C35.2983033,17.5406773 35.008977,17.1138969 34.6982143,16.7028571 C34.2919579,16.1726553 33.6010824,15.9466231 32.9595238,16.1340136 C32.6369841,16.2044898 32.3194841,16.3102041 31.9515873,16.4058503 C32.1985317,16.1491156 32.4555556,15.9376871 32.6319444,15.7010884 C33.0494845,15.2357242 33.2746333,14.6294058 33.2619048,14.0046259 C33.2376025,13.3759439 33.0173658,12.7705341 32.6319444,12.2729252 C32.2637257,11.7413844 31.6746614,11.4046261 31.0293254,11.3567347 C30.6930572,11.3321546 30.3551138,11.3439693 30.0213889,11.3919728 C29.2472158,11.5113132 28.5050527,11.7852451 27.8392063,12.197415 C25.9144159,13.3259221 24.0489534,14.5524828 22.2501984,15.8722449 C22.2158033,15.9033644 22.1837953,15.937019 22.1544444,15.9729252 L28.907619,24.9687075 L31.321627,23.292381 L28.6959524,19.3658503 L28.8421032,19.255102 C29.2956746,18.9681633 29.7442063,18.6711565 30.2078571,18.3993197 C30.4326903,18.2698512 30.6709571,18.1651992 30.9184524,18.0872109 C31.364577,17.9347216 31.8587491,18.0635772 32.1733333,18.4144218 C32.2942053,18.5342753 32.4007506,18.6677295 32.4908333,18.8121088 C32.8335317,19.3155102 33.1611111,19.8642177 33.4987698,20.3877551 C33.6364469,20.5960111 33.7862138,20.796036 33.9473016,20.9868027 C34.0528316,21.0943523 34.1693844,21.1905267 34.2950397,21.2737415 C34.4013861,21.3463913 34.5414711,21.3463913 34.6478175,21.2737415 L37.1122222,19.9497959 C37.1721051,19.9121208 37.2278491,19.8682508 37.2785317,19.8189116 C36.5880952,19.6326531 36.5729762,19.6326531 36.195,19.0386395 Z M30.2380952,16.1591837 C30.0911378,16.364872 29.9221481,16.5539276 29.734127,16.7229932 C29.1239624,17.2036741 28.4843594,17.6458487 27.8190476,18.0469388 C27.2142857,17.1156463 26.5994444,16.2397279 26.0098016,15.3587755 C26.0098016,15.3185034 26.0400397,15.2983673 26.0551587,15.2933333 C26.6716381,14.8443697 27.3220247,14.4438053 28.0004762,14.0952381 C28.2991299,13.9491145 28.6256036,13.868446 28.9580159,13.8586395 C29.3728957,13.8318977 29.7718486,14.0225695 30.0113095,14.3620408 C30.1580866,14.5730236 30.2782654,14.8012756 30.369127,15.0416327 C30.5169555,15.4123805 30.4676865,15.8325884 30.2380952,16.1591837 L30.2380952,16.1591837 Z" id="Shape" fill="#FFFFFF" fill-rule="nonzero"></path>
            <path d="M40.9171825,6.48884354 C40.2801296,6.4630757 39.6428632,6.53436925 39.0273016,6.70027211 C38.1306708,6.93371622 37.2646219,7.27163605 36.4469841,7.70707483 C35.7300071,8.0602273 35.0948605,8.55919958 34.5823016,9.17197279 C34.0513582,9.79981616 33.7697847,10.6005917 33.7910714,11.4221769 C33.8123832,11.9144199 33.9110208,12.4002579 34.083373,12.8619048 C34.4178825,13.8027109 34.8379296,14.7109467 35.338254,15.5752381 C35.6925853,16.2463802 36.1275282,16.8718582 36.6334524,17.4378231 C37.5188867,18.3946524 38.8508574,18.8022537 40.1209127,18.505034 C41.2954662,18.2689751 42.4227958,17.8403233 43.4571825,17.2364626 C44.8675569,16.5346885 45.6770497,15.0165754 45.4730556,13.4559184 C45.3751435,12.6539713 45.2064986,11.8622318 44.9690873,11.089932 C44.7210655,10.1812112 44.3834345,9.29929922 43.9611508,8.45714286 C43.3996712,7.28901805 42.2339276,6.53019632 40.9373413,6.48884354 L40.9171825,6.48884354 Z M42.5701984,14.437551 C42.6758711,14.8696726 42.6036312,15.3260753 42.3696551,15.7045577 C42.135679,16.0830401 41.759515,16.3519808 41.3253968,16.4511565 C41.190309,16.5013826 41.0523062,16.5434093 40.9121429,16.5770068 C40.3752049,16.737741 39.7933062,16.588555 39.4002381,16.1893878 C39.0908771,15.8691925 38.8340528,15.502228 38.639246,15.1020408 C38.0223899,13.9743794 37.5047185,12.7953487 37.0920635,11.5782313 C36.9603603,11.1974586 36.8906,10.7980631 36.8854365,10.3952381 C36.8682482,9.88464168 37.1159097,9.40129353 37.5405952,9.11659864 C38.0105243,8.7808014 38.5588578,8.57107444 39.1331349,8.50748299 C39.6168003,8.45436496 40.0956171,8.64266347 40.4132143,9.01088435 C40.7584485,9.38582542 41.03177,9.82094151 41.2195635,10.2945578 C41.6328175,11.2157823 41.9755159,12.1621769 42.2980556,13.1186395 C42.3938095,13.5767347 42.5097222,14.0247619 42.5701984,14.4828571 L42.5701984,14.437551 Z" id="Shape" fill="#FFFFFF" fill-rule="nonzero"></path>
            <path d="M88.8294444,7.64163265 C87.3981746,11.105034 85.9618651,14.5734694 84.5205159,18.0469388 C87.2120198,19.152446 89.8150315,20.4617438 92.3068254,21.9634014 L93.2643651,20.3776871 C91.5911905,19.3708844 89.8776984,18.4496599 88.1138095,17.6039456 L89.4190873,14.8704762 C91.1124206,15.6708844 92.7351984,16.5367347 94.3378175,17.4780952 L95.2802381,15.8823129 C93.6221825,14.9006803 91.9439683,14.0197279 90.2405556,13.1941497 C90.6336508,12.3736054 91.011627,11.5782313 91.4097619,10.7576871 C92.3723413,11.2610884 93.3147619,11.7141497 94.2370238,12.207483 C95.1592857,12.7008163 96.0765079,13.2142857 97.0088492,13.7478912 L97.9462302,12.1873469 C96.3032937,11.0647619 90.2355159,8.03428571 88.8496032,7.65673469 L88.8294444,7.64163265 Z" id="Path" fill="#FFFFFF" fill-rule="nonzero"></path>
            <path d="M25.7880556,21.9080272 C24.9464286,22.5423129 24.1199206,23.1816327 23.3286905,23.8612245 C23.479881,24.062585 23.6159524,24.2387755 23.7469841,24.42 C24.0365635,24.7908205 24.2459273,25.2176478 24.3618254,25.6734694 C24.4709406,26.0767085 24.3831437,26.5077351 24.1249603,26.8363265 C23.8922142,27.1462478 23.6012023,27.4078639 23.2682143,27.6065306 C22.9311888,27.8233674 22.5131025,27.8734813 22.1342857,27.742449 C21.9450864,27.6848582 21.7639095,27.603674 21.5950397,27.5008163 C21.2574955,27.2848132 20.9327342,27.0495 20.622381,26.7960544 C19.7494718,26.0330917 18.9497358,25.1904372 18.2335714,24.2790476 C17.939739,23.9399933 17.693862,23.5622769 17.5028175,23.1564626 C17.2579892,22.6323636 17.3343146,22.0146281 17.6993651,21.5657143 C17.9744948,21.2171619 18.317344,20.9277802 18.7073016,20.714966 C19.1818247,20.4055963 19.7989197,20.4236667 20.2544841,20.7602721 C20.522882,20.9664635 20.7802599,21.1865849 21.0255556,21.4197279 C21.0860317,21.470068 21.1364286,21.5254422 21.1868254,21.5707483 L23.8074603,19.4866667 C23.495,19.1644898 23.2127778,18.852381 22.9053571,18.5704762 C22.4210522,18.1202461 21.7828977,17.8717539 21.1213095,17.8757823 C20.3606859,17.8740509 19.6137122,18.0775418 18.9592857,18.4647619 C17.6501171,19.2146348 16.5079883,20.2235795 15.6028571,21.4297959 C15.5113486,21.5522251 15.4272055,21.6799787 15.350873,21.812381 C15.2357819,22.0044499 15.1314676,22.2027603 15.0384127,22.4063946 C14.4204324,23.6354956 14.5843165,25.1127384 15.4567063,26.1768707 C16.2860764,27.2419822 17.2557516,28.1902467 18.3394048,28.9959184 C18.6834403,29.266129 19.0473224,29.510127 19.4279762,29.7258503 C20.5684505,30.4007833 21.9866289,30.4007833 23.1271032,29.7258503 C24.3211475,29.0609109 25.3684896,28.1619975 26.2063492,27.0829932 C26.4371799,26.770461 26.631621,26.432683 26.7859127,26.0761905 C27.0836,25.4183871 27.1389358,24.676651 26.9421429,23.9820408 C26.7274043,23.2784353 26.3858211,22.6199213 25.9342063,22.0389116 C25.8989286,21.9936054 25.8535714,21.9533333 25.7981349,21.8929252 L25.7880556,21.9080272 Z" id="Path" fill="#FFFFFF" fill-rule="nonzero"></path>
            <path d="M55.0938095,2.96 C53.8375202,3.062029 52.589763,3.25041174 51.3594048,3.52380952 C51.1124603,4.29401361 50.8554365,5.07428571 50.5984127,5.85455782 C50.3413889,6.63482993 50.1398016,7.41510204 49.8827778,8.23061224 C48.8446032,6.92176871 47.8165079,5.67836735 46.7380159,4.4752381 C45.4831349,4.78734694 44.243373,5.1044898 42.9884921,5.52734694 L43.2253571,5.73877551 C45.1331976,7.33099976 46.959859,9.01783686 48.6984524,10.7929252 C48.8150127,10.9125385 48.8953737,11.0626095 48.9302778,11.2258503 C49.2326587,12.5044898 49.5400794,13.7780952 49.8475,15.0567347 C49.8655345,15.1233828 49.8874096,15.1889342 49.9130159,15.2530612 L52.7301984,14.6540136 C52.7333771,14.598685 52.7333771,14.5432198 52.7301984,14.4878912 C52.4882937,13.1639456 52.2262302,11.834966 51.9944048,10.5160544 C51.9686171,10.3670276 51.9843069,10.2137885 52.0397619,10.0730612 C52.90068,7.74937213 53.8796492,5.47104037 54.9728571,3.24693878 C55.0182143,3.15632653 55.0585317,3.06068027 55.1089286,2.96 L55.0938095,2.96 Z" id="Path" fill="#FFFFFF" fill-rule="nonzero"></path>
            <path d="M79.7832143,14.4073469 L82.5248016,5.38136054 L79.0675794,4.45006803 C78.1604365,8.141678 77.2583333,11.7829478 76.3612698,15.3738776 C77.7169444,15.7665306 79.0524603,16.1239456 80.3627778,16.5417687 C81.6730952,16.9595918 82.963254,17.4478912 84.2786111,17.9059864 C84.5003571,17.3572789 84.7271429,16.7985034 84.9640079,16.2246259 C83.2505159,15.529932 81.5319841,14.9409524 79.7832143,14.4073469 Z" id="Path" fill="#FFFFFF" fill-rule="nonzero"></path>
            <path d="M2.5702381,38.5957823 L12.4984127,43.8764626 C13.002381,42.9653061 13.4811508,42.0692517 13.985119,41.1530612 L4.40972222,35.3689796 C3.73561756,36.4087577 3.12145803,37.4861096 2.5702381,38.5957823 L2.5702381,38.5957823 Z" id="Path" fill="#FFFFFF" fill-rule="nonzero"></path>
            <path d="M65.5763492,13.6572789 C64.5307951,9.86790399 63.2499148,6.14727363 61.7411508,2.5170068 L57.452381,2.70829932 C56.2025534,6.52109377 55.1926462,10.4082257 54.4285714,14.3469388 L57.452381,14.0046259 C57.6186905,13.1991837 57.785,12.4038095 57.9563492,11.5882993 C59.3019444,11.487619 60.6223413,11.4272109 61.9880952,11.4221769 C62.2098413,12.217551 62.4315873,12.9978231 62.6533333,13.7881633 L62.9355556,13.7881633 C63.8477381,13.7881633 64.8002381,13.8234014 65.7124206,13.8737415 L65.6469048,13.6421769 L65.5763492,13.6572789 Z M61.3631746,9.56462585 L58.3393651,9.69047619 C58.7274206,7.97387755 59.1608333,6.28244898 59.6648016,4.59605442 L61.3631746,9.56462585 Z" id="Shape" fill="#FFFFFF" fill-rule="nonzero"></path>
            <path d="M72.1228968,59.8191837 C71.3087632,59.8258762 70.4993725,59.6948173 69.7290476,59.4315646 C67.8925184,58.7578645 66.5066824,57.2229177 66.024881,55.3288435 C65.6220952,53.8773968 65.534464,52.3567328 65.7678571,50.8687075 C66.0067523,49.3528158 66.519017,47.892798 67.2797619,46.5595918 C67.5115873,46.1518367 67.7585317,45.7591837 68.0155556,45.3866667 C69.41522,43.3402749 71.3263321,41.6950964 73.5592063,40.6144218 C74.2679302,40.2625252 75.0458519,40.0717018 75.8371429,40.0556463 C76.0259912,40.056172 76.2145814,40.0696276 76.4015873,40.0959184 C76.9956698,40.1802911 77.5552093,40.4257936 78.0193254,40.8057143 C78.4987083,41.2345461 78.8479371,41.7891953 79.0272619,42.4065306 C79.3724037,43.8131554 79.2899375,45.2906201 78.7903968,46.6502041 C78.4479255,47.8808036 77.884404,49.0389875 77.1273016,50.0682993 C75.8724206,51.8251701 73.8918254,53.5468027 71.7449206,54.0653061 C70.9940079,54.2465306 70.3590079,54.2414966 70.2733333,53.9142857 C70.1574206,53.4813605 70.7773016,53.2095238 71.1603175,52.9427211 C71.8614048,52.4538889 72.4965839,51.876949 73.0501984,51.2261224 C74.3640048,49.6491359 75.3076675,47.7983349 75.8119444,45.8095238 C75.9076984,45.3917007 76.2806349,43.9570068 75.8119444,43.670068 C75.4591667,43.4485714 74.8392857,43.7556463 74.4613095,43.9620408 C73.0298283,44.8207877 71.8089364,45.9887047 70.8881746,47.3801361 C70.691627,47.6670748 70.500119,47.9640816 70.3287698,48.2711565 C69.7724279,49.2330326 69.3870765,50.2838926 69.1898016,51.3771429 C69.0073051,52.4236255 69.0659044,53.4978862 69.3611508,54.5183673 C69.489275,55.0163149 69.7249321,55.4802262 70.0515873,55.877551 C71.0595238,57.0202721 72.7830952,57.0504762 74.1538889,56.7585034 C75.9435268,56.3811094 77.5802986,55.4804081 78.8559127,54.1710204 C79.6421032,53.3756463 80.025119,52.7614966 80.4736508,52.8269388 C80.9221825,52.892381 80.8113095,53.7582313 80.7054762,54.1005442 C80.3625865,55.15744 79.7716267,56.1171009 78.9819048,56.8994558 C77.1546726,58.717436 74.7009466,59.7691363 72.1228968,59.8393197" id="Path" fill="#CF2630" fill-rule="nonzero"></path>
            <path d="M71.3064683,35.3186395 C73.0976919,33.6250119 75.4031356,32.5763293 77.8580556,32.3385034 L78.2410714,32.3385034 C79.5866667,32.3385034 79.7529762,32.8721088 79.7176984,33.3453061 C79.6118651,34.2111565 77.3641667,35.5502041 71.0796825,37.5587755 L70.2582143,37.8356463 C70.2582143,37.8356463 70.0415079,36.642585 71.2661508,35.3488435" id="Path" fill="#CF2630" fill-rule="nonzero"></path>
            <path d="M68.0004365,73.9093878 C67.6023016,73.9093878 67.2041667,73.9093878 66.8110714,73.8540136 C65.2651983,73.6988893 63.7659403,73.2367815 62.4013492,72.4948299 C60.6525794,71.5736054 58.6467857,69.8117007 59.0902778,69.0767347 C59.4632143,68.467619 60.8037698,69.942585 63.4092857,70.4510204 C65.9052451,70.9884707 68.4913411,70.9471397 70.9688095,70.3302041 C73.1810381,69.755399 75.2492052,68.7267646 77.041627,67.3097959 C78.7668244,65.9274504 80.308021,64.330469 81.6277381,62.5576871 C82.0661905,61.9838095 82.8977381,60.8360544 83.4017063,61.1531973 C83.9056746,61.4703401 82.9985317,63.7356463 82.5903175,64.5561905 C81.6441551,66.6416647 80.2706829,68.5057709 78.5585714,70.0281633 C75.6419661,72.5997199 71.8647329,73.9831475 67.9752381,73.9043537" id="Path" fill="#CF2630" fill-rule="nonzero"></path>
            <path d="M62.9153968,63.5242177 C59.8411905,63.4839456 56.4343651,61.8529252 54.8519048,59.1546939 C54.2925,58.1931973 54.7309524,57.0806803 55.2248413,56.1997279 C56.8022619,53.3605442 59.2112302,51.070068 60.1788492,47.8634014 C60.4913095,46.8263946 60.6324206,45.9152381 60.3300397,45.3463946 C60.1470704,44.9476555 59.6957756,44.747066 59.276746,44.8782313 C58.2284921,45.1601361 57.3515873,45.885034 56.3990873,47.0277551 C55.329101,48.3892453 54.4960101,49.9208167 53.9346825,51.5583673 C52.7856349,54.6844898 52.6747619,57.4179592 52.6798016,60.5239456 C52.6798016,61.425034 52.7150794,62.7389116 52.0448016,62.8043537 C50.8251984,62.9302041 50.3665873,58.9482993 50.2960317,58.107619 C50.0915773,55.5842803 50.345981,53.0448109 51.0469444,50.6119728 C51.5931634,48.5782297 52.5087839,46.6620259 53.7482143,44.9587755 C55.4012302,42.7840816 59.1053968,39.9902041 61.9376984,41.9031293 C64.0795635,43.3579592 64.2257143,46.8112925 63.5,48.9809524 C62.6281349,51.4979592 61.0456746,53.6726531 59.4984921,55.6610884 L59.1255556,56.1644898 C58.7022222,56.7081633 58.2637698,57.2719728 57.8757143,57.8458503 C57.7487367,58.0216918 57.7487367,58.2589885 57.8757143,58.4348299 C58.2042935,58.8964552 58.5923281,59.3128271 59.0298016,59.6731973 C59.7137209,60.2327226 60.4739503,60.6920762 61.2875794,61.037415 C62.2133381,61.4454183 63.1953257,61.7118519 64.2005159,61.8277551 C64.5744749,61.8484262 64.9456732,61.9040433 65.309246,61.9938776 C65.5067218,62.036736 65.6594716,62.1932771 65.6973016,62.3915646 C65.8232937,63.3379592 63.5503968,63.5745578 62.9153968,63.5644898" id="Path" fill="#CF2630" fill-rule="nonzero"></path>
            <path d="M99.8965873,55.6006803 C99.2615873,55.6006803 99.2615873,53.7884354 99.3422222,52.6809524 C99.4127778,51.7144218 99.5438095,50.4659864 99.5790873,50.0229932 C99.7504365,47.9036735 100.002421,45.7793197 100.083056,43.649932 C100.279603,37.6091156 100.728135,35.2985034 101.731032,35.0468027 L101.76127,35.0468027 C101.813234,35.0419642 101.865536,35.0419642 101.9175,35.0468027 C102.200924,35.0436331 102.470883,35.1673789 102.653294,35.3840816 C103.505,36.3405442 103.545317,42.1044898 103.373968,44.4453061 C103.256403,46.7783431 102.865686,49.089598 102.209802,51.3318367 C101.468968,53.7934694 100.728135,55.6157823 99.9066667,55.6157823" id="Path" fill="#CF2630" fill-rule="nonzero"></path>
            <path d="M86.9294841,57.8911565 C86.594814,57.4988337 86.1049399,57.2725678 85.5889286,57.2719728 C84.9287302,57.2317007 84.4247619,57.0957823 83.9409524,55.7617687 C83.6717735,54.9654497 83.4744396,54.1466774 83.3513095,53.3152381 C83.0760143,51.4098567 82.9077614,49.4905705 82.8473413,47.5663946 C82.8120635,46.9522449 82.7868651,46.3330612 82.756627,45.7189116 C82.7011905,44.5057143 82.645754,43.2572789 82.5701587,42.0289796 C82.5036845,40.7956623 82.3453364,39.5690037 82.0964286,38.3591837 C81.8343651,37.352381 82.8019841,37.5990476 83.4672222,38.485034 C84.1283551,39.4394272 84.5973528,40.5131471 84.8480952,41.6463946 C85.3003185,43.4438987 85.6270041,45.2706074 85.8257937,47.1133333 L85.9719444,48.2006803 C86.1634524,49.7108844 86.3650397,51.2210884 86.6724603,52.7010884 C86.7228571,52.9427211 86.8790873,53.4561905 87.2923413,52.8823129 C90.9662698,47.8482993 92.6797619,44.2791837 94.8518651,39.4717007 C95.6229365,37.7651701 96.0513095,36.7533333 96.7619048,35.1273469 C96.9081245,34.6857736 97.1223632,34.2696671 97.3969048,33.8940136 C97.8454365,33.3906122 98.3040476,33.6070748 98.2536508,34.5987755 C97.9159921,41.4853061 92.4680952,53.4763265 87.4788095,57.9213605 C87.4109167,57.9974393 87.313738,58.0409483 87.2117063,58.0409483 C87.1096747,58.0409483 87.012496,57.9974393 86.9446032,57.9213605 L86.9294841,57.8911565 Z" id="Path" fill="#CF2630" fill-rule="nonzero"></path>
            <path d="M107.345238,54.9009524 C107.168849,54.9009524 106.599365,54.8204082 106.559048,53.8035374 C106.52881,53.0887075 106.533849,52.3436735 106.559048,51.6288435 C106.584246,50.9140136 106.559048,50.2394558 106.559048,49.5548299 C106.52377,48.4423129 106.463294,47.3096599 106.402817,46.2172789 C106.327222,44.8530612 106.251627,43.4435374 106.221389,42.0591837 C106.065159,35.514966 106.901746,32.1371429 108.700913,32.0565986 L108.731151,32.0565986 C108.923281,32.054266 109.107037,32.1350277 109.235119,32.2780952 C109.53246,32.5952381 109.986032,34.3672109 109.633254,37.9463946 C109.956663,36.6780112 110.618534,35.5210401 111.548333,34.5987755 C112.047163,34.1088733 112.697242,33.8019414 113.392857,33.7278912 C114.212416,33.6472986 115.022813,33.9524839 115.585119,34.5534694 C116.063898,35.0328609 116.433485,35.6097985 116.668651,36.244898 C117.1916,37.6173117 117.581443,39.0367019 117.832817,40.4835374 C118.019286,41.4097959 118.170476,42.3662585 118.311587,43.292517 C118.558532,44.8681633 118.996984,48.2912925 120.040198,49.4088435 C121.315238,50.7831293 123.567976,48.5379592 124.323929,47.5915646 C124.893413,46.8717007 126.022302,44.8782313 126.51619,45.0091156 C127.010079,45.14 126.6825,46.1115646 126.566587,46.5696599 C126.426353,47.1306963 126.219963,47.6731283 125.951746,48.1855782 C125.409851,49.2921233 124.654576,50.2809157 123.729246,51.0952381 C123.251341,51.5154028 122.708415,51.8554128 122.121587,52.1020408 C121.657057,52.2900476 121.161268,52.389094 120.660079,52.3940136 C120.476022,52.3943536 120.292263,52.3791979 120.110754,52.3487075 C119.352818,52.2229513 118.650361,51.8721178 118.094881,51.3419048 C117.447717,50.7178224 116.93346,49.9695641 116.582976,49.1420408 C115.781667,47.4506122 115.428889,45.502449 115.071071,43.6046259 C114.919881,42.7589116 114.77373,41.9585034 114.592302,41.1832653 L114.557024,41.0423129 C114.345357,40.1462585 114.284881,37.8255782 113.483571,37.6594558 C111.931349,37.3423129 109.829802,43.4787755 109.411508,49.7410884 C109.327555,51.1535347 109.001987,52.5411773 108.448929,53.8438095 C108.136468,54.5183673 107.713135,54.9059864 107.284762,54.9059864 L107.345238,54.9009524 Z" id="Path" fill="#CF2630" fill-rule="nonzero"></path>
            <path d="M31.3871429,60.3427211 C31.9447736,60.4056551 32.5077264,60.4056551 33.0653571,60.3427211 C35.073123,60.0632151 36.9789184,59.2861791 38.6090079,58.082449 C40.4264031,56.8013306 41.979997,55.1828302 43.1850397,53.3152381 C44.2602703,51.7269331 44.9504532,49.9103468 45.2009127,48.0093878 C45.2714683,47.3902041 45.0043651,47.3197279 44.878373,47.2794558 C44.5857254,47.2005499 44.2843953,47.1582758 43.9813095,47.1536054 C42.0813492,47.0277551 40.115873,47.5512925 38.3267857,48.1604082 C37.0920457,48.5493195 35.8972677,49.0550119 34.7586905,49.6706122 C34.3101587,49.9273469 32.9746429,50.7982313 32.9746429,51.065034 C32.9746429,51.1254422 33.02,51.2160544 33.2568651,51.3570068 C34.6125397,52.1473469 37.0467063,52.0114286 38.5686905,51.784898 C38.8660317,51.7395918 39.3246429,51.8302041 39.3246429,52.1272109 C39.2912171,52.3477415 39.1492552,52.536811 38.9466667,52.6306122 C37.2734921,53.5921088 34.3454365,53.7028571 32.5462698,53.1340136 C32.0985218,52.9987812 31.6903639,52.756926 31.3569048,52.4292517 C31.1906987,52.2585496 31.0544075,52.0611497 30.9537302,51.8453061 C30.857586,51.6238775 30.8029247,51.3867095 30.7924603,51.1455782 C30.7841701,50.7008379 30.897424,50.2622551 31.1200397,49.8770068 C31.3304383,49.5082115 31.5898137,49.16954 31.8911111,48.8702041 C33.3123016,47.3197279 35.3634524,46.3129252 37.2936508,45.497415 C39.4141771,44.546837 41.6988482,44.0152014 44.021627,43.9318367 C45.0853193,43.899634 46.1355782,44.175891 47.0454365,44.7272109 C47.5393758,45.0594609 47.9387233,45.513858 48.2045635,46.0461224 C48.4759909,46.5981911 48.6075156,47.2084013 48.5875794,47.8231293 C48.4630653,50.4490377 47.6610016,52.998188 46.259246,55.2231293 C44.8487038,57.5455967 42.9899914,59.5647797 40.7911905,61.1632653 C38.6578641,62.7711902 36.1500944,63.810588 33.5038095,64.1836735 C32.6663108,64.2742686 31.821467,64.2742686 30.9839683,64.1836735 C30.5032924,64.1328945 30.026733,64.0487914 29.5577381,63.9319728 C28.2020811,63.5918551 26.9275729,62.986118 25.8082143,62.149932 C24.0916056,60.8554894 22.8300437,59.0507533 22.2048413,56.995102 C21.6271631,54.9979563 21.4845314,52.9003661 21.7865476,50.8435374 C22.3661222,46.6895134 24.0684017,42.7718871 26.7103175,39.5119728 C29.2126802,36.4640281 32.3540082,34.001564 35.9127778,32.2982313 C38.8811508,30.8786395 43.2404762,29.5496599 46.5717063,30.5161905 C47.1714286,30.692381 47.9777778,31.069932 47.7963492,31.457551 C47.6854762,31.6991837 47.3377381,31.8653061 46.7884127,31.825034 C45.1775391,31.7561375 43.5664037,31.9551765 42.020873,32.4140136 C40.2869763,32.8915631 38.6231688,33.5939088 37.0719048,34.5031293 C34.0352482,36.2936969 31.3892434,38.6748191 29.2906349,41.5054422 C27.1867441,44.3757765 25.8589247,47.7392692 25.4352778,51.2714286 C25.2375249,52.8076617 25.3645725,54.3682465 25.8082143,55.852381 C26.2185655,57.1329239 27.0161447,58.2549618 28.0911905,59.0640816 C28.8069108,59.5896996 29.6182956,59.9709976 30.48,60.1866667 C30.778009,60.2614585 31.0812551,60.3136254 31.3871429,60.3427211" id="Path" fill="#CF2630" fill-rule="nonzero"></path>
            <path d="M91.7776587,62.4670748 L94.6956349,62.4670748 C95.039871,62.4599895 95.3822022,62.51983 95.7035714,62.6432653 C95.964902,62.7452583 96.2006049,62.9033624 96.3940079,63.1063946 C96.5697147,63.2993473 96.7020315,63.5276373 96.7820635,63.7759184 C96.9499138,64.2739784 96.9499138,64.8132325 96.7820635,65.3112925 C96.700823,65.5575338 96.5686052,65.7839379 96.3940079,65.9757823 C96.2162098,66.1765665 95.9981502,66.3377834 95.7539683,66.4489796 C95.4329767,66.5742576 95.0906097,66.6358143 94.7460317,66.6302041 L93.234127,66.6302041 L93.234127,68.9659864 L91.8129365,68.9659864 L91.8129365,62.4670748 L91.7776587,62.4670748 Z M93.1988492,65.487483 L94.3025397,65.487483 C94.461063,65.4863823 94.6193318,65.4746096 94.7762698,65.4522449 C94.9168596,65.4314263 95.0520698,65.3835576 95.1744048,65.3112925 C95.2911169,65.2380916 95.3866644,65.1357105 95.4515873,65.0142857 C95.5888408,64.6926867 95.5888408,64.329082 95.4515873,64.007483 C95.3866644,63.8860582 95.2911169,63.7836771 95.1744048,63.7104762 C95.0517515,63.6398564 94.9165379,63.5936961 94.7762698,63.5745578 C94.6197539,63.5480122 94.4612955,63.5345416 94.3025397,63.5342857 L93.1988492,63.5342857 L93.1988492,65.477415 L93.1988492,65.487483 Z" id="Shape" fill="#CF2630" fill-rule="nonzero"></path>
            <path d="M99.8209921,62.4670748 L101.297619,62.4670748 L103.716667,68.9408163 L102.24004,68.9408163 L101.736071,67.4960544 L99.3170238,67.4960544 L98.8130556,68.9408163 L97.3666667,68.9408163 L99.8209921,62.4670748 L99.8209921,62.4670748 Z M99.6849206,66.4489796 L101.363135,66.4489796 L100.546706,64.0779592 L100.546706,64.0779592 L99.6849206,66.4489796 Z" id="Shape" fill="#CF2630" fill-rule="nonzero"></path>
            <path d="M105.168095,62.4670748 L108.655556,62.4670748 C108.923829,62.4627942 109.190518,62.5089001 109.441746,62.6029932 C109.662942,62.6930684 109.86481,62.8246473 110.036429,62.9906122 C110.201634,63.1521246 110.331983,63.3457146 110.419444,63.5594558 C110.505904,63.7791376 110.55035,64.0130679 110.550476,64.2491156 C110.561733,64.6003174 110.478177,64.9480748 110.308571,65.2559184 C110.12837,65.5502712 109.852697,65.7741149 109.527421,65.8902041 L109.527421,65.8902041 C109.686974,65.9325419 109.835048,66.0099355 109.960833,66.1167347 C110.075633,66.2199226 110.171188,66.3426416 110.243056,66.4791837 C110.316721,66.6183428 110.369368,66.7676237 110.399286,66.9221769 C110.433487,67.0883098 110.457053,67.256451 110.469841,67.4255782 C110.469841,67.5329705 110.469841,67.6537868 110.469841,67.7880272 C110.469841,67.9289796 110.469841,68.069932 110.505119,68.2159184 C110.517542,68.3551788 110.541137,68.4932185 110.575675,68.6287075 C110.605388,68.7477311 110.656626,68.860329 110.726865,68.9609524 L109.300635,68.9609524 C109.25856,68.8503101 109.228157,68.7355847 109.209921,68.6186395 C109.209921,68.4978231 109.169603,68.3669388 109.154484,68.2310204 C109.139365,68.095102 109.124246,67.9541497 109.119206,67.8131973 C109.114167,67.6722449 109.094008,67.5363265 109.073849,67.4104762 C109.05778,67.1347542 108.949526,66.8723988 108.766429,66.6654422 C108.552298,66.4887831 108.276982,66.4037485 108.000397,66.4288435 L106.589286,66.4288435 L106.589286,68.9458503 L105.168095,68.9458503 L105.168095,62.4670748 Z M106.589286,65.3918367 L108.151587,65.3918367 C108.413582,65.4123579 108.673903,65.3352459 108.882341,65.1753741 C109.061667,64.9864769 109.151541,64.7299834 109.129286,64.4706122 C109.151633,64.2172512 109.061328,63.9668894 108.882341,63.7859864 C108.673903,63.6261146 108.413582,63.5490026 108.151587,63.5695238 L106.589286,63.5695238 L106.589286,65.3918367 L106.589286,65.3918367 Z" id="Shape" fill="#CF2630" fill-rule="nonzero"></path>
            <polygon id="Path" fill="#CF2630" fill-rule="nonzero" points="112.616746 62.4670748 114.037937 62.4670748 114.037937 68.9408163 112.616746 68.9408163 112.616746 62.4670748"></polygon>
            <path d="M117.16254,66.7912925 C117.156727,66.9829932 117.198268,67.1731736 117.283492,67.345034 C117.356312,67.4909985 117.46354,67.6171086 117.595952,67.712517 C117.733946,67.8071928 117.887447,67.8770424 118.049524,67.9189116 C118.227121,67.9658989 118.410088,67.9895901 118.59381,67.9893878 C118.73054,67.9872273 118.866949,67.9754522 119.002024,67.9541497 C119.143564,67.9353597 119.281296,67.894596 119.410238,67.8333333 C119.533539,67.7741341 119.642021,67.6881341 119.727738,67.5816327 C119.81603,67.4664669 119.860663,67.3238018 119.85373,67.1789116 C119.86075,67.0207932 119.80031,66.8671184 119.687421,66.7560544 C119.56079,66.6360278 119.41183,66.5419636 119.248968,66.4791837 C119.049034,66.4016481 118.843497,66.3393831 118.634127,66.2929252 L117.933611,66.1117007 C117.694546,66.0508168 117.459007,65.9768734 117.228056,65.8902041 C117.005908,65.812376 116.798162,65.6984146 116.613214,65.5529252 C116.433995,65.416992 116.284741,65.2456282 116.174762,65.0495238 C116.052065,64.8154779 115.992982,64.5533756 116.003413,64.2893878 C115.995225,63.986429 116.070165,63.6870053 116.220119,63.4235374 C116.35916,63.181829 116.54814,62.9724691 116.774484,62.8093878 C117.012113,62.6446862 117.276356,62.5220792 117.555635,62.4469388 C117.838419,62.3714165 118.129746,62.3325037 118.42246,62.3311565 C118.751602,62.329239 119.079805,62.366416 119.400159,62.4419048 C119.6956,62.5135908 119.975614,62.6380912 120.226667,62.8093878 C120.462861,62.9694105 120.659362,63.181186 120.80119,63.4285714 C120.951232,63.7246821 121.025675,64.0532464 121.017897,64.385034 L119.637024,64.385034 C119.633559,64.218521 119.592197,64.05498 119.516071,63.9068027 C119.45003,63.7848285 119.354808,63.6810664 119.238889,63.6047619 C119.116118,63.5313924 118.981334,63.4802665 118.840754,63.4537415 C118.683038,63.4229881 118.522676,63.407813 118.361984,63.4084354 C118.245141,63.407681 118.128557,63.4194951 118.014246,63.4436735 C117.903762,63.4678161 117.798133,63.5103604 117.701786,63.5695238 C117.610512,63.6296603 117.533184,63.7086177 117.475,63.8010884 C117.412046,63.903939 117.380519,64.0229092 117.384286,64.1434014 C117.378391,64.2503535 117.402848,64.3567948 117.454841,64.4504762 C117.528493,64.547997 117.628,64.6229796 117.742103,64.6669388 C117.931789,64.7482216 118.12718,64.8155218 118.326706,64.8682993 L119.334643,65.12 L119.838611,65.2559184 C120.06665,65.3220391 120.2827,65.4239949 120.478651,65.5579592 C120.697778,65.703031 120.884748,65.891504 121.027976,66.1117007 C121.190247,66.3817612 121.270764,66.6929768 121.259802,67.0077551 C121.261312,67.2924353 121.201139,67.5740714 121.083413,67.8333333 C120.970876,68.088973 120.797943,68.3135331 120.579444,68.4877551 C120.329203,68.6856677 120.043597,68.8342892 119.737817,68.9257143 C119.016624,69.1202767 118.25667,69.1202767 117.535476,68.9257143 C117.215751,68.8444754 116.914631,68.7026297 116.648492,68.5078912 C116.389822,68.3215502 116.179104,68.0765642 116.033651,67.7930612 C115.880426,67.4800905 115.806036,67.1344781 115.816944,66.7862585 L117.16254,66.7912925 Z" id="Path" fill="#CF2630" fill-rule="nonzero"></path>
        </g>
    </g>
</svg>